<?xml version="1.0" standalone="no"?>
<!DOCTYPE svg PUBLIC "-//W3C//DTD SVG 20010904//EN"
 "http://www.w3.org/TR/2001/REC-SVG-20010904/DTD/svg10.dtd">
<svg version="1.0" xmlns="http://www.w3.org/2000/svg"
 width="512.000000pt" height="512.000000pt" viewBox="0 0 512.000000 512.000000"
 preserveAspectRatio="xMidYMid meet">

<g transform="translate(0.000000,512.000000) scale(0.100000,-0.100000)"
fill="#000000" stroke="none">
<path d="M2510 5106 c-40 -22 -409 -626 -713 -1168 -411 -732 -680 -1303 -817
-1733 -81 -251 -101 -364 -101 -546 1 -391 149 -778 414 -1079 264 -303 618
-497 1022 -561 103 -17 387 -17 490 0 740 118 1304 679 1420 1414 18 116 21
324 5 422 -54 338 -272 886 -617 1550 -322 617 -943 1669 -1005 1701 -34 17
-66 17 -98 0z m169 -474 c856 -1402 1336 -2434 1358 -2917 10 -210 -41 -451
-138 -655 -80 -168 -151 -271 -278 -404 -252 -262 -588 -418 -953 -445 -312
-22 -634 56 -886 216 -381 243 -626 620 -688 1061 -35 251 3 468 149 857 187
498 616 1327 1085 2100 63 105 140 232 171 283 31 50 58 92 61 92 3 0 56 -85
119 -188z"/>
<path d="M3710 1775 c-38 -20 -47 -48 -59 -177 -36 -383 -253 -709 -589 -884
-41 -21 -82 -49 -93 -62 -37 -47 -19 -120 36 -147 44 -20 50 -20 124 15 316
150 578 459 677 798 46 159 67 362 43 415 -22 49 -89 70 -139 42z"/>
<path d="M2580 593 c-55 -6 -90 -24 -105 -54 -24 -45 -19 -84 16 -118 29 -29
35 -31 107 -31 116 1 162 13 195 50 24 27 28 39 23 69 -3 23 -17 46 -36 64
-27 24 -37 27 -98 25 -37 0 -83 -3 -102 -5z"/>
</g>
</svg>
