<?xml version="1.0" standalone="no"?>
<!DOCTYPE svg PUBLIC "-//W3C//DTD SVG 20010904//EN"
 "http://www.w3.org/TR/2001/REC-SVG-20010904/DTD/svg10.dtd">
<svg version="1.0" xmlns="http://www.w3.org/2000/svg"
 width="96.000000pt" height="96.000000pt" viewBox="0 0 96.000000 96.000000"
 preserveAspectRatio="xMidYMid meet">

<g transform="translate(0.000000,96.000000) scale(0.100000,-0.100000)"
fill="#000000" stroke="none">
<path d="M240 880 c-11 -11 -20 -24 -20 -29 0 -6 -21 -11 -47 -13 l-48 -3 -3
-357 c-2 -347 -2 -358 18 -378 19 -19 33 -20 340 -20 307 0 321 1 340 20 20
20 20 31 18 378 l-3 357 -46 3 c-38 2 -48 7 -57 27 -21 45 -92 42 -107 -5 -6
-19 -15 -20 -146 -20 -86 0 -139 4 -139 10 0 17 -39 50 -60 50 -11 0 -29 -9
-40 -20z m55 -61 c0 -24 -5 -34 -15 -34 -16 0 -25 37 -16 62 10 26 31 8 31
-28z m400 0 c0 -24 -5 -34 -15 -34 -16 0 -25 37 -16 62 10 26 31 8 31 -28z
m-470 -39 c15 -47 86 -50 107 -5 11 25 12 25 149 25 129 0 138 -1 144 -20 15
-47 86 -50 107 -5 8 18 19 25 40 25 28 0 28 -1 28 -60 l0 -60 -320 0 -320 0 0
60 c0 60 0 60 29 60 21 0 32 -6 36 -20z m573 -377 l-3 -238 -315 0 -315 0 -3
238 -2 237 320 0 320 0 -2 -237z"/>
<path d="M451 521 c-20 -48 -21 -49 -77 -56 l-56 -7 41 -42 c23 -23 40 -49 37
-57 -2 -8 -7 -33 -10 -57 l-6 -44 51 28 51 28 49 -28 50 -28 -6 39 c-3 21 -8
47 -10 59 -3 14 8 33 36 60 39 38 39 39 17 46 -13 3 -38 6 -56 7 -30 1 -35 6
-54 51 -11 28 -24 50 -28 50 -4 0 -17 -22 -29 -49z"/>
</g>
</svg>
