<?xml version="1.0" standalone="no"?>
<!DOCTYPE svg PUBLIC "-//W3C//DTD SVG 20010904//EN"
 "http://www.w3.org/TR/2001/REC-SVG-20010904/DTD/svg10.dtd">
<svg version="1.0" xmlns="http://www.w3.org/2000/svg"
 width="300.000000pt" height="324.000000pt" viewBox="0 0 300.000000 324.000000"
 preserveAspectRatio="xMidYMid meet">
<metadata>
Created by potrace 1.10, written by Peter Selinger 2001-2011
</metadata>
<g transform="translate(0.000000,324.000000) scale(0.100000,-0.100000)"
fill="#000000" stroke="none">
<path d="M150 3218 c0 -7 5 -31 10 -53 5 -22 8 -41 6 -42 -2 -2 -22 4 -46 12
-64 23 -68 19 -25 -25 l38 -39 -27 -11 c-15 -5 -39 -13 -54 -17 -24 -6 -24 -7
-7 -14 11 -4 34 -8 51 -8 45 -1 47 -9 14 -51 -17 -21 -30 -41 -30 -44 0 -4 23
5 50 19 l50 25 0 -57 1 -58 26 50 c28 54 24 55 76 -16 18 -24 18 -24 12 34
l-7 57 51 -19 c28 -10 51 -16 51 -13 0 3 -16 23 -36 43 l-37 37 44 13 c65 18
67 26 10 34 -28 4 -51 10 -51 13 0 4 14 25 30 46 17 22 28 41 26 43 -1 2 -24
-8 -49 -23 -26 -14 -47 -22 -48 -17 0 4 0 27 1 51 2 53 -12 54 -35 2 -10 -22
-21 -40 -25 -40 -4 0 -20 18 -35 40 -30 43 -35 47 -35 28z m131 -119 c34 -37
35 -44 10 -85 -13 -21 -30 -33 -52 -38 -28 -5 -38 -2 -63 24 -30 30 -30 30
-16 72 15 42 25 49 83 57 5 0 22 -13 38 -30z"/>
<path d="M1122 3215 c-31 -23 -73 -110 -116 -243 -20 -63 -46 -136 -57 -163
-51 -118 -77 -16 -44 174 22 124 33 147 36 75 1 -32 2 -61 3 -65 1 -5 6 -30
10 -57 13 -80 26 -34 26 92 0 62 -4 122 -10 132 -13 25 -57 34 -84 17 -26 -17
-68 -100 -91 -179 -9 -32 -21 -58 -26 -58 -6 0 -8 8 -5 18 2 9 12 52 22 95 15
67 16 79 3 92 -18 18 -61 27 -77 17 -7 -5 -26 -55 -42 -113 -25 -86 -31 -125
-33 -226 -2 -121 -2 -123 25 -149 25 -25 29 -26 58 -14 41 17 49 34 76 174 24
124 54 229 80 278 25 48 33 31 14 -29 -38 -124 -48 -310 -18 -365 12 -25 38
-22 70 6 20 17 36 51 59 122 86 272 111 334 134 334 21 0 19 -32 -10 -152 -47
-196 -53 -404 -13 -456 51 -70 83 -88 95 -54 3 9 15 24 26 33 16 14 18 19 7
38 -26 49 -30 146 -14 298 29 280 29 276 3 305 -31 34 -77 44 -107 23z m75
-233 c-19 -173 -22 -309 -8 -360 18 -61 -11 -85 -41 -34 -38 64 -31 240 19
454 39 167 52 141 30 -60z m-448 61 c-9 -52 -8 -66 6 -97 16 -34 16 -41 0
-126 -12 -60 -24 -95 -37 -107 -19 -17 -20 -17 -33 1 -32 43 4 341 48 394 20
24 27 -4 16 -65z"/>
<path d="M1410 3149 c-32 -32 -65 -79 -84 -118 -27 -58 -31 -79 -34 -173 -4
-106 -4 -107 23 -132 59 -55 149 -15 213 94 l27 45 7 -65 c8 -68 25 -94 56
-83 38 13 48 32 50 95 3 64 25 166 44 203 19 36 80 116 85 111 3 -2 0 -21 -7
-41 -14 -42 -2 -65 35 -65 17 0 27 11 43 48 32 76 34 88 17 106 -42 41 -119 0
-166 -89 -13 -25 -27 -45 -31 -45 -12 0 -10 7 12 50 11 22 20 41 20 44 0 14
-35 36 -56 36 -40 0 -74 -72 -89 -193 -5 -40 -16 -58 -62 -110 -57 -65 -109
-104 -121 -93 -11 12 -3 134 12 171 9 20 22 35 31 35 37 0 115 106 115 156 0
36 -14 51 -57 60 -27 5 -36 0 -83 -47z m110 -17 c0 -32 -62 -112 -86 -112 -10
0 -5 19 21 70 37 74 65 92 65 42z m150 -63 c0 -23 -6 -67 -14 -98 -8 -31 -17
-81 -21 -111 -12 -105 -22 -111 -44 -29 -11 39 -10 51 2 75 8 16 18 54 22 84
14 104 55 163 55 79z m-272 -31 c0 -18 -8 -46 -18 -63 -31 -52 -44 -175 -21
-198 15 -15 14 -27 -3 -27 -8 0 -17 7 -20 16 -9 25 -7 144 5 194 9 39 44 110
54 110 2 0 3 -15 3 -32z"/>
<path d="M2080 3154 c-21 -20 -47 -53 -57 -75 -9 -21 -20 -39 -25 -39 -11 0
-9 11 7 40 29 51 10 90 -45 90 -43 0 -90 -178 -90 -342 0 -64 3 -81 20 -98 20
-20 43 -18 67 5 6 7 14 43 18 81 14 139 54 244 115 299 23 21 25 14 8 -33 -12
-31 -11 -36 10 -52 13 -11 28 -17 35 -14 18 7 57 97 57 132 0 55 -62 58 -120
6z m-102 -81 c0 -21 -6 -65 -15 -98 -8 -33 -18 -89 -21 -124 -4 -38 -12 -66
-19 -69 -28 -9 -5 258 26 317 16 30 29 18 29 -26z"/>
<path d="M2486 3114 c-15 -15 -96 -148 -96 -157 0 -3 -25 -58 -56 -122 -42
-88 -59 -115 -72 -113 -27 5 -23 161 7 257 34 111 46 76 15 -48 -24 -98 -25
-153 -4 -166 5 -3 12 11 15 32 11 66 27 136 46 196 13 41 16 64 9 77 -12 22
-68 46 -79 34 -18 -21 -63 -196 -68 -265 -7 -101 2 -147 31 -161 53 -23 108
33 147 150 25 78 91 209 119 240 32 34 54 18 46 -35 -3 -23 -9 -64 -13 -90 -3
-27 -16 -61 -29 -78 -36 -48 -49 -122 -69 -380 -11 -132 -20 -109 -26 65 -5
144 -4 170 12 205 19 43 39 143 39 191 0 27 -2 26 -21 -16 -11 -25 -25 -69
-30 -98 -6 -31 -26 -78 -46 -109 -42 -66 -84 -177 -108 -285 -14 -66 -15 -86
-5 -130 28 -116 75 -137 145 -65 54 57 72 121 85 312 19 264 36 303 175 393
46 31 64 47 53 50 -20 4 -70 -21 -120 -60 -21 -16 -38 -25 -38 -19 0 5 4 12 9
15 5 3 17 38 26 78 l18 71 -29 24 c-34 27 -66 29 -88 7z m-107 -466 c-4 -24
-8 -105 -9 -180 0 -146 -7 -180 -40 -198 -18 -10 -22 -7 -35 24 -28 66 -12
174 47 323 35 87 51 100 37 31z"/>
<path d="M400 2759 l0 -42 -47 7 -48 6 32 -32 32 -32 -32 -29 -32 -28 42 4 42
5 9 -42 8 -41 17 33 c20 37 24 38 57 12 36 -28 42 -25 25 16 -8 20 -15 37 -15
39 0 1 19 8 43 15 l42 13 -30 13 c-16 7 -36 13 -43 14 -9 0 -9 8 3 37 8 20 13
38 11 41 -3 2 -19 -6 -36 -18 -17 -12 -33 -21 -34 -19 -2 2 -11 19 -20 37 -9
17 -19 32 -21 32 -3 0 -5 -19 -5 -41z m74 -84 c6 -18 -28 -48 -51 -43 -21 4
-31 57 -12 68 15 10 56 -7 63 -25z"/>
<path d="M2665 2618 l7 -41 -36 22 c-39 24 -49 16 -16 -14 29 -26 25 -35 -17
-35 -41 0 -37 -10 9 -26 l31 -10 -38 -22 c-44 -27 -42 -36 5 -22 19 5 36 8 38
5 2 -2 -6 -21 -19 -41 -23 -39 -14 -39 29 -1 l22 20 0 -42 c0 -47 15 -47 25
-1 8 34 21 39 30 11 3 -11 12 -24 20 -31 11 -9 12 -4 8 31 l-6 43 30 -22 c44
-31 49 -27 19 13 l-27 35 43 1 43 0 -40 18 -40 18 33 17 c43 22 40 29 -9 21
l-42 -7 23 31 c27 39 19 53 -13 23 -32 -31 -41 -27 -34 13 7 43 -11 47 -19 5
-4 -16 -10 -30 -15 -30 -5 0 -15 14 -24 30 -21 41 -28 38 -20 -12z m83 -60
c17 -17 15 -63 -2 -78 -23 -18 -59 -8 -75 22 -14 24 -14 28 3 47 21 23 56 27
74 9z"/>
<path d="M226 2459 c-109 -95 -217 -350 -215 -503 l1 -61 14 45 c7 25 25 88
39 140 34 124 93 245 150 306 45 49 45 49 31 14 -8 -19 -42 -94 -75 -166 -72
-155 -93 -236 -92 -356 1 -110 13 -158 52 -203 33 -38 33 -41 -3 -24 -35 16
-56 51 -88 146 l-28 88 -1 -56 c-1 -30 6 -78 14 -105 32 -107 152 -167 242
-121 58 31 151 162 129 184 -3 4 -30 -18 -60 -49 -67 -68 -108 -88 -144 -67
-42 24 -63 62 -74 137 -20 135 10 258 117 474 76 155 81 161 106 147 34 -18
17 -141 -26 -189 -22 -24 -16 -54 12 -58 43 -6 93 93 93 186 0 62 -22 99 -68
111 -61 18 -89 13 -126 -20z"/>
<path d="M555 2444 c-83 -83 -168 -536 -124 -663 12 -34 39 -54 62 -45 19 7
45 66 57 130 11 62 39 134 51 134 5 0 6 -12 2 -27 -13 -52 -9 -218 6 -236 34
-41 103 -2 147 83 l17 35 9 -32 c11 -40 24 -49 53 -33 20 11 25 23 30 79 10
98 23 140 61 199 38 58 59 69 42 22 -7 -23 -7 -34 2 -45 20 -25 38 -17 60 25
24 47 26 83 5 100 -31 26 -89 -10 -130 -82 -28 -48 -31 -44 -13 14 13 44 4 58
-38 58 -30 0 -43 -36 -68 -176 -10 -61 -23 -96 -49 -137 -56 -87 -60 -84 -52
46 7 108 6 116 -14 136 -28 28 -75 28 -95 -1 -9 -12 -23 -45 -32 -73 -8 -27
-18 -56 -20 -64 -2 -8 -7 -12 -9 -9 -14 14 21 174 70 319 69 207 72 259 15
259 -16 0 -36 -7 -45 -16z m55 -42 c0 -35 -28 -134 -42 -147 -7 -7 -9 -2 -5
15 3 14 9 52 13 85 3 33 8 63 11 68 10 17 23 5 23 -21z m-89 -267 c-41 -128
-48 -192 -26 -234 17 -34 14 -73 -7 -99 -46 -55 -35 217 17 418 22 85 28 92
38 48 7 -30 3 -55 -22 -133z m325 -132 l-15 -48 0 37 c-1 43 20 103 26 76 2
-9 -3 -38 -11 -65z m-21 -130 c-4 -19 -9 -23 -17 -15 -9 9 -8 19 2 39 15 32
25 16 15 -24z"/>
<path d="M1653 2402 c-6 -4 -19 -26 -28 -50 -17 -41 -18 -42 -65 -42 -74 0
-152 -32 -131 -53 6 -6 34 -3 80 8 39 11 73 16 76 13 4 -3 -2 -35 -13 -70 -11
-34 -25 -89 -32 -120 -8 -43 -16 -58 -28 -58 -9 0 -39 -12 -67 -25 -62 -30
-61 -30 -69 -1 -3 13 -9 31 -12 39 -4 11 5 21 25 31 32 17 61 62 61 95 0 24
-36 51 -68 51 -33 0 -89 -58 -97 -102 -5 -24 0 -61 13 -109 l21 -74 -34 -35
c-39 -42 -75 -106 -75 -136 0 -27 43 -44 112 -44 55 0 92 27 104 75 6 25 -4
94 -21 137 -5 13 7 24 54 47 33 17 62 31 64 31 2 0 0 -26 -5 -57 -22 -134 11
-292 63 -306 46 -12 81 27 123 139 15 39 33 80 41 90 12 17 13 13 8 -38 -7
-67 12 -108 51 -108 39 0 57 33 82 152 26 128 63 239 82 246 9 3 10 -2 3 -20
-17 -45 -34 -194 -29 -261 5 -84 15 -96 59 -71 34 20 31 14 101 234 28 90 59
160 70 160 19 0 18 -29 -1 -106 -42 -162 -52 -317 -26 -382 27 -62 85 -109 85
-67 0 8 9 19 19 25 19 9 19 13 5 45 -8 21 -14 68 -14 122 0 77 5 132 26 293 9
70 -42 122 -99 101 -27 -11 -76 -105 -106 -208 -12 -40 -23 -73 -25 -73 -1 0
0 51 2 113 5 125 -2 141 -54 135 -36 -4 -60 -39 -94 -134 -31 -86 -38 -75 -15
21 19 80 19 80 -11 93 -42 20 -57 2 -82 -95 -13 -48 -50 -143 -83 -210 -32
-68 -59 -127 -59 -133 0 -23 -18 -7 -24 21 -20 102 -2 289 45 459 l21 76 101
-1 c105 0 143 7 132 25 -3 6 -52 10 -112 10 -105 0 -105 0 -98 23 18 58 17 63
-10 75 -30 14 -27 14 -42 4z m3 -127 c-9 -14 -21 -25 -26 -25 -16 0 -5 42 16
57 25 18 31 0 10 -32z m-246 -113 c0 -16 -11 -39 -27 -57 l-28 -30 -3 43 c-4
47 10 72 39 72 14 0 19 -7 19 -28z m175 -109 c-4 -21 -10 -90 -14 -153 l-8
-115 -1 113 c-1 66 3 129 10 152 16 50 23 52 13 3z m265 -133 c0 -57 -23 -135
-40 -135 -16 0 -35 93 -26 130 21 90 28 114 39 140 12 29 12 28 20 -35 4 -36
7 -81 7 -100z m356 -70 c0 -99 -4 -180 -7 -180 -4 0 -12 14 -19 31 -9 21 -11
59 -7 127 5 85 23 202 31 202 2 0 3 -81 2 -180z m-190 15 c-8 -19 -20 -35 -25
-35 -12 0 -15 98 -4 151 l6 33 19 -57 c17 -51 17 -60 4 -92z m-679 -22 c-5
-48 -25 -73 -59 -73 -34 0 -17 67 26 102 33 27 39 22 33 -29z"/>
<path d="M1108 2228 c-6 -34 6 -72 24 -76 17 -3 58 42 58 65 0 13 -38 33 -64
33 -8 0 -16 -10 -18 -22z"/>
<path d="M2768 2200 c-31 -24 -61 -95 -53 -121 4 -13 -1 -26 -14 -37 -11 -9
-41 -55 -67 -102 -25 -47 -52 -92 -60 -100 -12 -12 -14 -10 -14 15 0 17 12 78
26 137 15 58 24 114 21 122 -4 9 -17 20 -29 25 -56 22 -107 33 -125 27 -89
-28 -186 -259 -139 -331 18 -27 47 -32 90 -15 18 6 35 29 53 67 16 32 31 60
36 61 4 2 4 8 1 14 -7 12 45 128 58 128 12 0 10 -35 -7 -104 -23 -91 -25 -95
-37 -66 -10 24 -10 24 -18 5 -18 -42 -11 -103 14 -132 l25 -28 38 20 c32 17
45 37 93 133 30 61 58 112 61 112 4 0 12 -21 18 -46 l12 -46 -41 -45 c-43 -45
-70 -97 -70 -132 0 -24 45 -41 110 -41 91 0 127 61 98 166 -8 29 -12 57 -8 63
3 6 41 26 83 44 42 19 74 36 71 40 -9 9 -63 -3 -114 -27 -25 -11 -49 -20 -54
-20 -5 -1 -15 16 -22 37 -13 36 -12 37 16 52 57 30 79 95 42 128 -25 23 -64
21 -94 -3z m72 -40 c0 -20 -9 -40 -27 -58 l-28 -27 -3 37 c-4 46 12 78 38 78
16 0 20 -7 20 -30z m-330 -42 c0 -6 -26 -63 -57 -127 -48 -97 -58 -111 -61
-88 -4 34 42 177 69 211 19 24 49 26 49 4z m-143 -233 c10 -22 9 -25 -8 -25
-14 0 -19 7 -19 25 0 32 12 32 27 0z m403 -33 c0 -47 -24 -82 -56 -82 -27 0
-30 13 -13 57 9 26 45 62 62 63 4 0 7 -17 7 -38z"/>
<path d="M1081 2083 c-46 -172 -51 -275 -17 -328 18 -27 51 -32 77 -12 24 18
66 90 89 149 23 61 22 58 12 58 -5 0 -30 -38 -56 -85 -26 -47 -51 -85 -56 -85
-15 0 -12 71 7 203 15 103 16 119 3 127 -31 20 -49 11 -59 -27z"/>
<path d="M2065 1717 c-4 -9 0 -39 8 -65 18 -52 7 -80 -17 -47 -41 56 -45 60
-56 49 -8 -8 0 -24 30 -60 22 -27 40 -52 40 -56 0 -16 -17 -7 -50 27 -32 33
-50 37 -50 12 0 -7 14 -21 31 -32 35 -23 59 -63 59 -98 0 -32 -7 -37 -40 -26
-19 7 -37 28 -60 70 -42 79 -72 65 -33 -16 16 -33 16 -37 1 -52 -23 -23 -45
-10 -70 42 -20 41 -48 61 -48 35 0 -11 32 -73 52 -102 19 -26 4 -31 -37 -13
-41 16 -51 14 -42 -9 12 -30 73 -30 132 -1 63 31 110 31 110 0 0 -16 -9 -21
-46 -26 -55 -8 -109 -34 -109 -53 0 -31 132 -58 189 -38 27 10 35 8 51 -8 20
-20 34 -73 28 -110 -5 -39 -46 -58 -143 -70 -49 -6 -100 -14 -112 -17 -23 -5
-23 -5 -49 67 -4 12 -11 9 -31 -14 -21 -25 -24 -36 -19 -70 4 -23 8 -67 11
-100 2 -33 11 -66 20 -75 21 -24 19 -47 -7 -89 -18 -30 -23 -54 -25 -131 l-3
-95 -29 -4 c-83 -9 -161 47 -161 115 0 79 88 151 171 140 37 -5 39 -4 39 23 0
31 -35 66 -77 76 -29 8 -30 20 0 28 22 6 22 7 -5 22 -32 17 -37 34 -10 34 14
1 13 4 -6 20 -13 11 -22 25 -19 32 2 7 -4 25 -14 39 -10 14 -21 38 -25 54 -6
24 -5 27 11 22 13 -6 16 -3 11 10 -4 9 -1 20 6 25 10 6 8 8 -4 8 -10 0 -18 6
-18 13 0 6 -12 13 -26 13 -18 2 -24 -2 -20 -12 3 -8 -1 -14 -11 -14 -12 0 -13
-3 -3 -15 6 -8 8 -20 4 -26 -5 -9 -2 -10 9 -6 30 11 19 -31 -14 -55 -27 -21
-29 -24 -13 -35 16 -12 16 -14 -1 -33 -10 -11 -24 -20 -32 -20 -7 0 -13 -4
-13 -10 0 -5 9 -10 20 -10 27 0 16 -24 -18 -39 -24 -11 -25 -14 -9 -22 10 -6
26 -7 37 -4 11 4 20 2 20 -4 0 -6 -4 -11 -9 -11 -5 0 -40 -25 -78 -55 -66 -53
-95 -65 -108 -45 -3 5 11 17 32 25 l38 16 -30 16 c-36 19 -65 43 -65 55 0 4
16 8 35 8 l34 0 -46 46 c-39 39 -44 48 -30 56 14 8 12 15 -17 61 -32 50 -53
97 -42 97 2 0 16 -4 30 -10 29 -10 35 0 11 20 -20 17 -19 27 5 35 28 9 25 25
-5 25 -21 0 -25 5 -25 31 l0 31 -19 -23 -19 -24 -22 20 -22 20 3 -30 c4 -26 0
-30 -26 -36 l-30 -6 28 -13 c26 -13 26 -14 12 -37 -17 -25 -7 -30 26 -13 10 6
19 7 19 2 0 -17 -42 -62 -71 -78 -33 -16 -30 -30 8 -45 l24 -9 -20 -29 c-12
-16 -39 -38 -61 -49 -44 -22 -42 -32 7 -32 18 0 33 -4 33 -8 0 -10 -45 -52
-79 -75 l-24 -16 27 -11 c15 -5 46 -7 68 -3 48 7 46 -11 -2 -22 -32 -7 -37
-14 -18 -33 6 -6 9 -14 7 -17 -10 -10 -141 8 -154 21 -7 8 -26 19 -42 25 -28
11 -28 12 25 24 77 18 147 75 92 75 -11 0 -35 7 -53 16 -32 16 -127 102 -127
115 0 4 19 3 42 -2 37 -9 89 -5 111 8 4 3 -11 17 -35 32 -49 31 -150 140 -142
153 3 4 13 8 23 8 10 0 24 6 30 13 8 11 6 18 -10 33 -28 25 -133 183 -126 190
3 3 15 1 26 -6 26 -13 26 -9 1 32 l-20 33 43 22 42 22 -42 7 c-45 7 -50 15
-33 60 15 37 8 39 -29 8 l-32 -27 -29 34 -29 34 -1 -42 0 -43 -42 0 -43 -1 35
-29 35 -29 -30 -32 -30 -32 33 6 c17 4 32 3 32 -2 0 -17 -110 -110 -145 -122
-19 -7 -35 -16 -35 -19 0 -16 52 -53 81 -59 18 -4 34 -11 36 -17 5 -15 -80
-108 -123 -135 -19 -12 -56 -29 -81 -39 -45 -17 -46 -18 -23 -30 13 -7 54 -15
93 -19 l70 -6 -64 -60 c-36 -33 -86 -71 -112 -85 -26 -14 -47 -28 -47 -31 0
-10 69 -36 115 -43 23 -4 62 -1 93 7 28 8 52 10 52 6 0 -12 -67 -45 -107 -54
-37 -7 -41 -20 -17 -53 13 -19 24 -22 61 -21 41 3 62 -9 63 -32 0 -10 -102
-40 -156 -46 -183 -20 -312 131 -238 278 18 36 71 79 105 86 16 3 29 9 29 14
0 13 -10 11 -82 -11 -145 -45 -227 -141 -236 -276 -12 -186 103 -307 293 -308
102 0 157 17 363 111 211 96 316 119 417 92 117 -32 186 -149 140 -239 -22
-43 -53 -60 -110 -61 l-50 0 45 -20 c51 -23 154 -27 223 -8 23 6 107 36 185
65 212 81 352 114 499 121 149 7 199 -2 403 -70 148 -50 160 -52 260 -52 96 0
110 2 158 28 91 48 135 103 152 192 l8 40 -25 -30 c-13 -17 -39 -52 -56 -80
-24 -38 -46 -57 -91 -80 -54 -27 -69 -30 -150 -30 -84 0 -104 5 -266 59 -170
57 -178 59 -305 64 -202 7 -289 -13 -695 -157 -96 -34 -170 -51 -170 -38 0 1
9 20 20 42 25 50 25 98 -1 155 -26 59 -53 86 -114 118 -44 24 -61 27 -145 27
-112 -1 -171 -18 -358 -106 -159 -76 -238 -100 -332 -101 -92 -2 -149 21 -201
79 -88 97 -88 238 -1 330 l27 28 5 -75 c5 -60 12 -84 34 -117 66 -99 192 -136
336 -98 110 29 139 80 75 133 -35 28 -36 30 -18 43 10 8 24 22 32 32 12 15 11
20 -4 37 -15 17 -31 20 -92 20 -40 0 -73 4 -73 8 0 4 22 25 50 46 50 38 90 91
90 119 0 8 -12 24 -27 35 l-28 21 48 45 c52 50 87 102 87 128 0 9 -14 28 -32
42 l-32 24 57 56 c31 31 57 62 58 69 1 6 2 39 3 72 1 57 2 60 27 63 41 5 52
-17 40 -82 -12 -67 -8 -81 55 -175 45 -68 46 -72 30 -90 -23 -26 -15 -49 39
-113 l45 -51 -30 -19 c-17 -10 -30 -26 -30 -36 0 -24 45 -82 87 -113 18 -13
33 -27 33 -31 0 -4 -15 -14 -34 -22 -18 -8 -37 -19 -40 -25 -23 -37 54 -97
145 -113 50 -9 63 -8 85 6 13 10 29 28 34 41 5 12 14 26 19 30 18 11 12 43
-10 58 -20 14 -20 16 -4 41 10 15 14 33 10 46 -4 13 -1 28 8 38 30 35 38 61
27 83 -9 17 -8 25 6 41 18 20 19 19 41 -9 13 -15 23 -38 23 -51 0 -13 7 -37
16 -54 9 -16 13 -40 10 -52 -3 -13 3 -35 14 -53 10 -17 16 -40 13 -51 -6 -26
12 -59 36 -67 27 -8 65 13 137 79 58 52 61 57 60 99 -1 41 19 97 34 97 10 0
28 -46 36 -92 3 -21 17 -49 31 -62 26 -26 24 -46 -6 -46 -30 0 -99 -58 -122
-102 -42 -82 -8 -166 86 -209 48 -22 90 -24 127 -5 16 9 42 12 65 9 32 -4 45
0 69 20 25 21 32 23 47 12 27 -20 193 -30 223 -14 22 11 27 10 55 -17 28 -27
36 -29 104 -29 59 0 79 4 101 21 43 31 41 44 -3 28 -48 -17 -130 -18 -163 -1
-28 14 -49 51 -57 102 -5 31 -3 35 16 35 17 0 21 6 21 32 0 24 12 43 50 84 28
29 50 62 50 73 0 13 -15 31 -40 47 -46 30 -45 29 -25 77 23 55 19 121 -11 189
l-27 59 24 25 c13 14 38 32 55 39 28 12 32 18 36 62 7 67 -9 83 -52 52 l-32
-24 -19 25 c-58 75 -55 73 -119 67 -55 -6 -60 -5 -60 13 0 11 8 35 17 54 14
30 15 43 4 89 -6 30 -18 63 -26 73 -13 18 -14 18 -20 1z m131 -268 c3 -6 2
-15 -2 -19 -12 -12 -38 5 -30 19 9 14 23 14 32 0z m-51 -29 c20 -22 45 -26 61
-10 7 7 18 2 34 -15 14 -15 34 -25 52 -25 15 0 28 -3 28 -7 0 -3 -22 -30 -50
-59 -27 -29 -50 -58 -50 -64 0 -6 11 -37 25 -70 29 -69 31 -97 10 -168 -12
-38 -13 -57 -5 -71 13 -26 13 -31 -4 -31 -8 0 -23 -11 -34 -25 -24 -30 -26
-30 -60 -5 -33 24 -133 30 -157 10 -9 -8 -28 -37 -42 -64 -14 -28 -27 -53 -29
-54 -1 -2 -16 4 -32 14 -32 18 -32 17 -51 164 -5 36 -12 73 -16 84 -7 17 -6
17 15 6 26 -14 175 -7 242 11 45 12 98 69 98 107 0 46 -19 98 -46 127 -24 26
-28 27 -90 20 -67 -7 -84 3 -35 22 18 7 37 26 50 51 21 41 47 72 60 72 4 0 16
-9 26 -20z m129 -563 c16 -11 15 -15 -13 -41 -37 -36 -47 -30 -31 18 13 39 18
42 44 23z m-136 -13 c7 -2 12 -23 12 -56 0 -29 7 -78 15 -108 8 -30 15 -68 15
-83 l0 -28 -97 7 c-54 3 -101 10 -106 13 -4 4 -13 33 -19 65 -12 55 -11 60 14
109 15 29 30 62 33 75 6 20 10 22 63 16 31 -3 63 -7 70 -10z m77 -92 c0 -31
-19 -28 -23 4 -3 18 0 25 10 22 7 -3 13 -14 13 -26z m-315 -96 c13 -87 9 -96
-44 -96 l-29 0 5 80 c3 59 10 85 23 100 24 27 30 17 45 -84z"/>
<path d="M2570 1629 l0 -42 -47 7 -48 6 32 -32 33 -32 -33 -34 -32 -35 41 7
c37 5 42 3 48 -17 3 -12 6 -33 6 -47 1 -23 3 -22 23 12 12 21 26 38 30 38 5 0
23 -10 39 -22 l31 -22 -8 30 c-14 52 -11 57 30 70 l40 11 -42 18 c-24 9 -43
18 -43 20 0 1 7 19 15 39 8 20 13 36 11 36 -3 0 -21 -9 -40 -21 l-36 -21 -17
36 c-22 47 -33 45 -33 -5z m66 -72 l27 -24 -22 -22 c-31 -31 -65 -25 -69 12
-3 27 12 57 29 57 4 0 20 -11 35 -23z"/>
<path d="M180 1421 c0 -32 -1 -33 -30 -27 -34 6 -37 1 -13 -26 15 -17 15 -20
-7 -43 l-23 -24 37 6 c35 6 36 5 36 -28 1 -32 2 -33 15 -15 8 10 16 24 18 30
3 7 12 4 26 -8 26 -23 35 -17 22 15 -7 21 -5 25 23 36 l31 11 -32 12 c-28 10
-31 15 -23 30 17 33 11 41 -17 23 -17 -11 -28 -14 -30 -7 -2 6 -10 20 -18 30
-13 18 -14 17 -15 -15z"/>
<path d="M2748 1310 c-2 -20 -8 -24 -28 -21 -24 3 -24 2 -8 -16 17 -18 17 -20
0 -37 -16 -18 -16 -18 6 -13 18 4 25 0 32 -16 7 -20 9 -20 15 -5 6 14 11 16
27 7 17 -9 19 -8 14 9 -5 15 -1 22 15 27 l22 7 -21 12 c-16 8 -18 15 -11 29
11 19 2 22 -21 7 -11 -7 -18 -3 -26 13 l-12 21 -4 -24z"/>
<path d="M2512 1103 c4 -28 1 -32 -26 -38 l-31 -6 28 -15 c26 -14 26 -16 11
-39 -15 -22 -15 -25 -1 -25 9 0 19 5 22 10 9 15 25 12 25 -5 0 -20 -57 -83
-91 -101 -38 -19 -36 -32 7 -50 l37 -15 -39 -40 c-21 -22 -56 -47 -76 -56 -44
-19 -34 -33 25 -33 20 0 37 -4 37 -9 0 -12 -67 -70 -96 -83 -34 -16 -30 -25
14 -38 29 -8 47 -8 82 3 l45 15 -32 7 -32 7 25 44 c21 35 24 47 14 59 -9 11
-6 22 18 52 35 43 39 58 28 91 -6 18 -2 30 15 48 12 13 27 24 33 24 17 0 60
-82 58 -109 -1 -13 8 -39 20 -59 18 -29 19 -38 9 -54 -12 -20 -11 -23 34 -84
6 -8 4 -22 -5 -39 -14 -26 -13 -29 23 -61 31 -29 44 -34 85 -34 39 0 58 6 91
31 42 30 80 94 81 133 0 17 2 17 24 3 l23 -16 -7 39 c-9 51 -44 105 -83 129
-45 28 -116 43 -152 33 l-30 -9 51 -16 c151 -51 180 -214 49 -277 l-44 -21
-46 20 c-45 20 -53 41 -17 41 10 0 28 7 41 16 l23 16 -39 18 c-21 9 -49 30
-63 45 l-25 27 30 -3 c68 -5 69 -1 11 52 -57 52 -67 69 -41 69 22 0 18 18 -14
59 -37 47 -72 124 -61 134 4 5 17 4 29 -2 24 -13 27 -4 6 23 -14 18 -12 21 13
38 l27 18 -32 0 c-30 0 -33 3 -33 33 l0 32 -20 -25 -20 -25 -21 25 -22 25 5
-32z"/>
<path d="M37 417 c189 -217 555 -387 873 -403 138 -7 115 9 -58 41 -139 26
-301 70 -317 87 -7 7 0 9 25 4 19 -4 73 -15 120 -24 66 -13 142 -17 335 -16
271 0 313 5 625 75 74 17 173 38 220 46 106 18 406 28 480 16 l55 -9 -105 -8
c-221 -15 -348 -35 -580 -91 -201 -48 -276 -64 -382 -79 -59 -9 -120 -22 -135
-28 -27 -12 -26 -13 25 -16 82 -5 260 24 482 78 312 76 518 100 875 100 221 0
279 -12 375 -77 19 -13 16 -7 -10 21 -94 102 -272 143 -660 153 -267 7 -362
-2 -615 -58 -292 -65 -396 -80 -585 -86 -247 -8 -433 16 -635 82 -105 34 -306
134 -373 185 -64 49 -73 51 -35 7z"/>
</g>
</svg>
