<?xml version="1.0" standalone="no"?>
<!DOCTYPE svg PUBLIC "-//W3C//DTD SVG 20010904//EN"
 "http://www.w3.org/TR/2001/REC-SVG-20010904/DTD/svg10.dtd">
<svg version="1.0" xmlns="http://www.w3.org/2000/svg"
 width="200.000000pt" height="200.000000pt" viewBox="0 0 200.000000 200.000000"
 preserveAspectRatio="xMidYMid meet">

<g transform="translate(0.000000,200.000000) scale(0.100000,-0.100000)"
fill="#000000" stroke="none">
<path d="M1655 1740 l-170 -170 -50 36 c-64 47 -172 97 -255 120 -88 24 -272
24 -359 0 -273 -74 -473 -274 -547 -547 -24 -87 -24 -271 0 -359 23 -83 73
-191 120 -255 l36 -50 -172 -172 -173 -173 43 -42 42 -43 173 172 172 173 64
-45 c84 -59 189 -101 296 -120 109 -19 141 -19 250 0 253 44 466 214 564 449
31 74 61 216 61 286 0 70 -30 212 -61 285 -16 40 -50 101 -74 136 l-45 64 172
172 172 173 -39 40 c-21 22 -42 40 -45 40 -3 0 -82 -76 -175 -170z m-537 -126
c82 -17 198 -67 247 -108 l30 -25 -438 -438 -438 -438 -25 30 c-42 51 -92 166
-110 254 -40 200 24 399 176 552 59 59 95 85 160 117 139 68 259 85 398 56z
m402 -269 c168 -245 135 -570 -80 -785 -151 -152 -352 -216 -551 -176 -88 18
-203 68 -254 110 l-30 25 435 435 c239 240 438 436 442 436 4 0 21 -20 38 -45z"/>
</g>
</svg>
